# xmcd CD database file generated by Grip 3.2.0
# 
# Track frame offsets:
#       150
#       26674
#       47812
#       77887
#       105171
#       132445
#       152793
#       177719
#       212754
#       233436
#       255143
#       273959
#       294431
#       318884
# 
# Disc length: 4440 seconds
# 
# Revision: 2
# Processed by: cddbd v1.5.2PL0 Copyright (c) Steve Scherf et al.
# Submitted via: Grip 3.2.0
# 
DISCID=b611560e
DTITLE=Jay McShann and Don Thompson - Solos And Duets [CD2]
DYEAR=1981
DGENRE=Jazz
TTITLE0=Froggie Bottom
TTITLE1=Gee Baby Ain't I Good To You
TTITLE2=Do Nothing Till You Hear From Me
TTITLE3=Barrelhouse Bolero
TTITLE4='Round Midnight
TTITLE5=(Since I Lost My Baby) I Almost Lost My Mind
TTITLE6=Kansas City Hustle
TTITLE7=Willow Weep For Me
TTITLE8=Blue Turbulence
TTITLE9=Don't Get Around Much Anymore
TTITLE10=Baby Won't You Please Come Home
TTITLE11=Rockin' Chair
TTITLE12=My Sweet Mama
TTITLE13=Keep Your Hands Off Her
EXTD=
EXTT0=
EXTT1=
EXTT2=
EXTT3=
EXTT4=
EXTT5=
EXTT6=
EXTT7=
EXTT8=
EXTT9=
EXTT10=
EXTT11=
EXTT12=
EXTT13=
PLAYORDER=
